<?xml version="1.0" encoding="UTF-8"?>
<!DOCTYPE svg PUBLIC "-//W3C//DTD SVG 1.1//EN" "http://www.w3.org/Graphics/SVG/1.1/DTD/svg11.dtd">
<svg xmlns="http://www.w3.org/2000/svg" version="1.1" width="500px" height="500px" style="shape-rendering:geometricPrecision; text-rendering:geometricPrecision; image-rendering:optimizeQuality; fill-rule:evenodd; clip-rule:evenodd" xmlns:xlink="http://www.w3.org/1999/xlink">
<g><path style="opacity:1" fill="#185ba4" d="M 152.5,115.5 C 214.501,115.333 276.501,115.5 338.5,116C 353.07,119.951 358.903,129.451 356,144.5C 353.713,157.555 351.213,170.555 348.5,183.5C 368.764,186.431 379.764,198.097 381.5,218.5C 405.677,230.522 415.177,249.855 410,276.5C 407.695,283.113 404.362,289.113 400,294.5C 399.454,317.217 387.954,330.55 365.5,334.5C 359.202,347.29 352.702,359.957 346,372.5C 341.131,379.018 334.631,382.518 326.5,383C 272.5,383.667 218.5,383.667 164.5,383C 156.369,382.518 149.869,379.018 145,372.5C 140.578,364.657 136.412,356.657 132.5,348.5C 126.602,347.823 120.768,347.489 115,347.5C 105.968,318.77 97.6351,290.103 90,261.5C 87.003,238.16 95.6697,220.827 116,209.5C 115.615,191.399 123.782,179.232 140.5,173C 137.413,160.31 135.246,147.477 134,134.5C 135.718,123.664 141.885,117.33 152.5,115.5 Z"/></g>
<g><path style="opacity:1" fill="#1a94eb" d="M 150.5,126.5 C 213.834,126.333 277.168,126.5 340.5,127C 346.854,132.254 348.354,138.754 345,146.5C 337.879,185.845 330.713,225.178 323.5,264.5C 314.601,258.081 304.601,255.247 293.5,256C 313.417,234.028 318.584,208.861 309,180.5C 289.918,145.373 261.085,132.873 222.5,143C 188.09,157.977 173.59,184.144 179,221.5C 182.987,239.465 192.487,253.632 207.5,264C 205.579,264.36 203.912,265.194 202.5,266.5C 201.614,265.675 201.281,264.675 201.5,263.5C 189.819,263.434 178.152,263.767 166.5,264.5C 159.489,221.787 152.156,179.12 144.5,136.5C 144.975,132.211 146.975,128.878 150.5,126.5 Z"/></g>
<g><path style="opacity:1" fill="#00539d" d="M 312.5,136.5 C 324.318,135.484 329.485,140.817 328,152.5C 322.349,160.331 315.682,161.331 308,155.5C 303.598,147.644 305.098,141.31 312.5,136.5 Z"/></g>
<g><path style="opacity:1" fill="#00539d" d="M 161.5,138.5 C 170.173,138.334 178.84,138.5 187.5,139C 191.925,141.549 192.592,144.882 189.5,149C 179.833,149.667 170.167,149.667 160.5,149C 157.711,145.225 158.045,141.725 161.5,138.5 Z"/></g>
<g><path style="opacity:1" fill="#f9fbfc" d="M 236.5,148.5 C 262.847,146.424 283.014,156.424 297,178.5C 310.135,206.824 305.302,231.657 282.5,253C 280.099,255.062 277.433,256.729 274.5,258C 267.515,258.771 260.515,259.271 253.5,259.5C 253.5,261.5 253.5,263.5 253.5,265.5C 251.473,265.662 249.473,265.495 247.5,265C 238.949,261.148 229.949,259.481 220.5,260C 194.456,245.942 183.623,224.108 188,194.5C 195.673,169.989 211.839,154.656 236.5,148.5 Z"/></g>
<g><path style="opacity:1" fill="#1f5ea6" d="M 240.5,159.5 C 267.015,158.993 284.182,171.327 292,196.5C 295.583,225.876 283.416,245.043 255.5,254C 223.974,257.125 204.807,243.291 198,212.5C 196.767,191.798 204.934,175.965 222.5,165C 228.34,162.213 234.34,160.38 240.5,159.5 Z"/></g>
<g><path style="opacity:1" fill="#fbfcfd" d="M 236.5,164.5 C 261.975,162.635 278.809,173.635 287,197.5C 290.214,224.606 278.714,241.773 252.5,249C 227.52,251.263 211.353,240.43 204,216.5C 200.682,190.319 211.515,172.986 236.5,164.5 Z"/></g>
<g><path style="opacity:1" fill="#cdecfe" d="M 139.5,182.5 C 140.5,182.5 141.5,182.5 142.5,182.5C 147.166,210.164 151.833,237.831 156.5,265.5C 138.167,266.567 119.834,267.567 101.5,268.5C 94.1434,242.712 102.81,224.546 127.5,214C 123.219,200.388 127.219,189.888 139.5,182.5 Z"/></g>
<g><path style="opacity:1" fill="#45aee2" d="M 262.5,183.5 C 265.166,183.066 266.333,184.066 266,186.5C 262.403,188.066 261.237,187.066 262.5,183.5 Z"/></g>
<g><path style="opacity:1" fill="#41ace2" d="M 281.5,201.5 C 281.737,202.791 281.404,203.791 280.5,204.5C 279.078,204.709 277.745,205.209 276.5,206C 273.687,209.981 270.353,213.481 266.5,216.5C 266.167,216.167 265.833,215.833 265.5,215.5C 267.5,213 268.833,210.166 269.5,207C 269.333,205.5 268.5,204.667 267,204.5C 264.353,207.116 262.187,210.116 260.5,213.5C 257.058,217.387 252.725,219.387 247.5,219.5C 241.915,217.935 236.248,217.435 230.5,218C 226.215,223.496 220.549,226.163 213.5,226C 214.252,226.671 214.586,227.504 214.5,228.5C 211.017,224.868 209.184,220.534 209,215.5C 211.995,218.265 215.495,219.098 219.5,218C 223.087,213.761 227.087,210.095 231.5,207C 237.837,206.934 244.17,206.934 250.5,207C 257.272,204.643 260.438,199.81 260,192.5C 261.268,189.938 263.102,189.272 265.5,190.5C 266.23,193.109 266.73,195.776 267,198.5C 269.42,195.479 271.253,192.146 272.5,188.5C 273.723,187.386 275.056,187.219 276.5,188C 279.439,192.042 281.106,196.542 281.5,201.5 Z"/></g>
<g><path style="opacity:1" fill="#ccecfe" d="M 346.5,193.5 C 358.746,193.367 366.913,199.034 371,210.5C 371.777,215.222 371.61,219.889 370.5,224.5C 393.471,231.303 403.971,246.636 402,270.5C 400.966,273.986 399.633,277.319 398,280.5C 394.167,266 385,256.833 370.5,253C 363.5,252.333 356.5,252.333 349.5,253C 344.597,253.869 340.097,255.702 336,258.5C 339.077,236.802 342.577,215.135 346.5,193.5 Z"/></g>
<g><path style="opacity:1" fill="#eff8fc" d="M 268.5,199.5 C 269.833,199.5 271.167,199.5 272.5,199.5C 272.5,200.833 272.5,202.167 272.5,203.5C 271.167,203.5 269.833,203.5 268.5,203.5C 268.5,202.167 268.5,200.833 268.5,199.5 Z"/></g>
<g><path style="opacity:1" fill="#f9fcfe" d="M 280.5,204.5 C 281.276,212.973 279.276,220.64 274.5,227.5C 271.595,229.968 268.261,231.135 264.5,231C 267.95,229.591 269.45,227.091 269,223.5C 268.586,223.043 268.086,222.709 267.5,222.5C 264.204,225.296 260.537,227.463 256.5,229C 249.508,228.835 242.508,228.835 235.5,229C 231.644,231.927 227.31,233.761 222.5,234.5C 219.557,232.894 216.891,230.894 214.5,228.5C 214.586,227.504 214.252,226.671 213.5,226C 220.549,226.163 226.215,223.496 230.5,218C 236.248,217.435 241.915,217.935 247.5,219.5C 252.725,219.387 257.058,217.387 260.5,213.5C 262.187,210.116 264.353,207.116 267,204.5C 268.5,204.667 269.333,205.5 269.5,207C 268.833,210.166 267.5,213 265.5,215.5C 265.833,215.833 266.167,216.167 266.5,216.5C 270.353,213.481 273.687,209.981 276.5,206C 277.745,205.209 279.078,204.709 280.5,204.5 Z"/></g>
<g><path style="opacity:1" fill="#43ade2" d="M 269.5,218.5 C 270.833,218.5 272.167,218.5 273.5,218.5C 273.833,221.5 272.5,222.833 269.5,222.5C 269.5,221.167 269.5,219.833 269.5,218.5 Z"/></g>
<g><path style="opacity:1" fill="#7ec5eb" d="M 281.5,201.5 C 283.338,211.304 281.338,220.304 275.5,228.5C 275.5,227.833 275.167,227.5 274.5,227.5C 279.276,220.64 281.276,212.973 280.5,204.5C 281.404,203.791 281.737,202.791 281.5,201.5 Z"/></g>
<g><path style="opacity:1" fill="#3dabe1" d="M 274.5,227.5 C 275.167,227.5 275.5,227.833 275.5,228.5C 268.255,239.986 257.755,245.319 244,244.5C 231.028,244.767 221.195,239.434 214.5,228.5C 216.891,230.894 219.557,232.894 222.5,234.5C 227.31,233.761 231.644,231.927 235.5,229C 242.508,228.835 249.508,228.835 256.5,229C 260.537,227.463 264.204,225.296 267.5,222.5C 268.086,222.709 268.586,223.043 269,223.5C 269.45,227.091 267.95,229.591 264.5,231C 268.261,231.135 271.595,229.968 274.5,227.5 Z"/></g>
<g><path style="opacity:1" fill="#fafbfd" d="M 350.5,263.5 C 357.175,263.334 363.842,263.5 370.5,264C 381.308,267.638 386.975,275.138 387.5,286.5C 381.5,286.5 375.5,286.5 369.5,286.5C 367.855,278.056 362.855,275.223 354.5,278C 351.619,279.251 349.786,281.417 349,284.5C 347.859,291.816 348.859,298.816 352,305.5C 357.466,309.47 362.966,309.47 368.5,305.5C 370.055,303.057 370.722,300.39 370.5,297.5C 376.203,297.625 381.87,297.292 387.5,296.5C 388.254,310.25 381.921,318.75 368.5,322C 340.289,325.457 327.456,312.957 330,284.5C 333.025,273.643 339.858,266.643 350.5,263.5 Z"/></g>
<g><path style="opacity:1" fill="#fafbfd" d="M 286.5,312.5 C 287.015,317.48 286.348,322.146 284.5,326.5C 279.178,326.98 273.845,327.313 268.5,327.5C 267.915,308.143 266.915,288.81 265.5,269.5C 279.481,268.287 293.481,267.787 307.5,268C 316.41,270.413 321.077,276.246 321.5,285.5C 320.696,292.448 317.362,297.781 311.5,301.5C 316.636,308.778 320.969,316.445 324.5,324.5C 317.468,324.83 310.468,324.497 303.5,323.5C 300.333,317.833 297.167,312.167 294,306.5C 291.619,305.565 289.119,305.232 286.5,305.5C 286.5,307.833 286.5,310.167 286.5,312.5 Z"/></g>
<g><path style="opacity:1" fill="#fafcfd" d="M 218.5,271.5 C 248.649,269.146 261.149,282.813 256,312.5C 253.649,319.519 249.149,324.686 242.5,328C 208.738,337.888 193.238,325.388 196,290.5C 200.131,280.038 207.631,273.705 218.5,271.5 Z"/></g>
<g><path style="opacity:1" fill="#9fbbda" d="M 175.5,275.5 C 179.97,274.514 184.637,274.181 189.5,274.5C 189.737,275.791 189.404,276.791 188.5,277.5C 184.627,275.57 180.294,274.903 175.5,275.5 Z"/></g>
<g><path style="opacity:1" fill="#fbfcfd" d="M 175.5,275.5 C 180.294,274.903 184.627,275.57 188.5,277.5C 185.128,296.102 182.128,314.769 179.5,333.5C 172.5,333.5 165.5,333.5 158.5,333.5C 155.396,322.149 152.23,310.815 149,299.5C 147.42,311.568 145.586,323.568 143.5,335.5C 136.732,335.679 130.065,335.679 123.5,335.5C 117.457,317.289 111.791,298.956 106.5,280.5C 112.836,279.109 119.169,278.776 125.5,279.5C 128.799,289.03 131.632,298.696 134,308.5C 136.152,298.257 137.652,287.924 138.5,277.5C 144.856,276.647 151.19,276.647 157.5,277.5C 160.637,287.048 163.303,296.714 165.5,306.5C 165.369,307.376 165.702,308.043 166.5,308.5C 167.466,306.604 167.799,304.604 167.5,302.5C 168.746,293.53 169.746,284.53 170.5,275.5C 172.167,275.5 173.833,275.5 175.5,275.5 Z"/></g>
<g><path style="opacity:1" fill="#1259a3" d="M 286.5,281.5 C 290.846,281.334 295.179,281.501 299.5,282C 303.482,284.952 303.482,287.952 299.5,291C 297.527,291.495 295.527,291.662 293.5,291.5C 290.833,291.5 288.167,291.5 285.5,291.5C 285.253,288.061 285.586,284.728 286.5,281.5 Z"/></g>
<g><path style="opacity:1" fill="#145aa4" d="M 221.5,285.5 C 229.493,284.097 234.993,287.097 238,294.5C 239.141,301.084 238.474,307.417 236,313.5C 228.587,319.322 221.92,318.655 216,311.5C 214.504,304.901 214.171,298.234 215,291.5C 217.063,289.266 219.229,287.266 221.5,285.5 Z"/></g>
<g><path style="opacity:1" fill="#86aad0" d="M 286.5,281.5 C 285.586,284.728 285.253,288.061 285.5,291.5C 288.167,291.5 290.833,291.5 293.5,291.5C 290.713,292.477 287.713,292.81 284.5,292.5C 283.92,288.351 284.586,284.684 286.5,281.5 Z"/></g>
<g><path style="opacity:1" fill="#a8c1dd" d="M 167.5,302.5 C 167.799,304.604 167.466,306.604 166.5,308.5C 165.702,308.043 165.369,307.376 165.5,306.5C 166.167,305.167 166.833,303.833 167.5,302.5 Z"/></g>
<g><path style="opacity:1" fill="#b0c8e0" d="M 286.5,312.5 C 287.486,316.97 287.819,321.637 287.5,326.5C 286.5,326.5 285.5,326.5 284.5,326.5C 286.348,322.146 287.015,317.48 286.5,312.5 Z"/></g>
<g><path style="opacity:1" fill="#f9fbfc" d="M 178.5,352.5 C 179.833,352.5 181.167,352.5 182.5,352.5C 182.5,357.167 182.5,361.833 182.5,366.5C 185.187,366.336 187.854,366.503 190.5,367C 191.451,367.718 191.617,368.551 191,369.5C 186.934,370.464 182.767,370.797 178.5,370.5C 178.5,364.5 178.5,358.5 178.5,352.5 Z"/></g>
<g><path style="opacity:1" fill="#f3f6fa" d="M 202.5,352.5 C 204.144,352.286 205.644,352.62 207,353.5C 210.307,358.772 212.474,364.439 213.5,370.5C 210.886,370.723 209.219,369.556 208.5,367C 207.167,366.833 205.833,366.667 204.5,366.5C 201.493,367.889 198.493,369.222 195.5,370.5C 197.042,364.21 199.375,358.21 202.5,352.5 Z"/></g>
<g><path style="opacity:1" fill="#eef3f8" d="M 219.5,352.5 C 220.833,352.5 222.167,352.5 223.5,352.5C 223.334,356.514 223.501,360.514 224,364.5C 225.733,366.602 227.733,366.935 230,365.5C 230.499,361.179 230.666,356.846 230.5,352.5C 232.144,352.286 233.644,352.62 235,353.5C 235.667,357.5 235.667,361.5 235,365.5C 233.601,369.238 230.934,370.904 227,370.5C 223.066,370.904 220.399,369.238 219,365.5C 218.232,361.08 218.398,356.747 219.5,352.5 Z"/></g>
<g><path style="opacity:1" fill="#f8fafc" d="M 251.5,360.5 C 251.783,361.289 252.283,361.956 253,362.5C 253.498,359.518 253.665,356.518 253.5,353.5C 254.568,352.566 255.901,352.232 257.5,352.5C 257.5,358.5 257.5,364.5 257.5,370.5C 256.127,370.657 254.793,370.49 253.5,370C 251.636,367.312 249.636,364.812 247.5,362.5C 247.217,361.711 246.717,361.044 246,360.5C 245.502,363.482 245.335,366.482 245.5,369.5C 244.432,370.434 243.099,370.768 241.5,370.5C 241.5,364.5 241.5,358.5 241.5,352.5C 242.873,352.343 244.207,352.51 245.5,353C 247.334,355.663 249.334,358.163 251.5,360.5 Z"/></g>
<g><path style="opacity:1" fill="#f6f9fb" d="M 264.5,352.5 C 269.267,352.191 273.934,352.691 278.5,354C 282.123,358.383 282.457,363.05 279.5,368C 274.742,370.144 269.742,370.977 264.5,370.5C 264.5,364.5 264.5,358.5 264.5,352.5 Z"/></g>
<g><path style="opacity:1" fill="#f4f7fb" d="M 294.5,364.5 C 293.791,363.596 292.791,363.263 291.5,363.5C 291.5,365.5 291.5,367.5 291.5,369.5C 290.432,370.434 289.099,370.768 287.5,370.5C 287.5,364.5 287.5,358.5 287.5,352.5C 291.514,352.334 295.514,352.501 299.5,353C 303.462,356.413 303.462,359.913 299.5,363.5C 301.327,365.487 302.327,367.821 302.5,370.5C 301.127,370.657 299.793,370.49 298.5,370C 297.512,367.833 296.179,366 294.5,364.5 Z"/></g>
<g><path style="opacity:1" fill="#f1f5f9" d="M 307.5,352.5 C 308.873,352.343 310.207,352.51 311.5,353C 312.726,354.635 314.059,356.135 315.5,357.5C 316.5,356.167 317.5,354.833 318.5,353.5C 319.689,352.571 321.022,352.238 322.5,352.5C 322.17,356.021 320.67,359.021 318,361.5C 317.502,364.482 317.335,367.482 317.5,370.5C 315.856,370.714 314.356,370.38 313,369.5C 312.667,366.833 312.333,364.167 312,361.5C 309.94,358.714 308.44,355.714 307.5,352.5 Z"/></g>
<g><path style="opacity:1" fill="#6495c4" d="M 253.5,353.5 C 253.665,356.518 253.498,359.518 253,362.5C 252.283,361.956 251.783,361.289 251.5,360.5C 252.167,358.167 252.833,355.833 253.5,353.5 Z"/></g>
<g><path style="opacity:1" fill="#2762a8" d="M 268.5,356.5 C 276.486,355.998 278.486,359.165 274.5,366C 272.527,366.495 270.527,366.662 268.5,366.5C 268.5,363.167 268.5,359.833 268.5,356.5 Z"/></g>
<g><path style="opacity:1" fill="#1e5ea6" d="M 292.5,356.5 C 294.167,356.5 295.833,356.5 297.5,356.5C 297.5,357.833 297.5,359.167 297.5,360.5C 295.833,360.5 294.167,360.5 292.5,360.5C 292.5,359.167 292.5,357.833 292.5,356.5 Z"/></g>
<g><path style="opacity:1" fill="#3b70b0" d="M 203.5,358.5 C 205.741,359.3 206.741,360.966 206.5,363.5C 205.167,363.5 203.833,363.5 202.5,363.5C 202.629,361.784 202.962,360.117 203.5,358.5 Z"/></g>
<g><path style="opacity:1" fill="#6092c3" d="M 247.5,362.5 C 246.833,364.833 246.167,367.167 245.5,369.5C 245.335,366.482 245.502,363.482 246,360.5C 246.717,361.044 247.217,361.711 247.5,362.5 Z"/></g>
<g><path style="opacity:1" fill="#9fbcda" d="M 294.5,364.5 C 292.972,365.802 291.972,367.469 291.5,369.5C 291.5,367.5 291.5,365.5 291.5,363.5C 292.791,363.263 293.791,363.596 294.5,364.5 Z"/></g>
</svg>
